<?xml version="1.0" standalone="yes"?>
<!-- Generated by Visual Integrity Suite 6.8 -->
<!DOCTYPE svg PUBLIC "-//W3C//DTD SVG 1.0//EN"
	"http://www.w3.org/TR/2001/REC-SVG-20010904/DTD/svg10.dtd" [
<!ENTITY sto0 "fill:none;  fill-rule:nonzero; stroke:#000000; stroke-width:5.04; stroke-linecap:butt; stroke-linejoin:miter">
<!ENTITY sto1 "fill:#000000;  fill-rule:nonzero; stroke:none; stroke-width:5.04; stroke-linecap:butt; stroke-linejoin:miter">
<!ENTITY sto2 "fill:#FFFFFF;  fill-rule:nonzero; stroke:none; stroke-width:5.04; stroke-linecap:butt; stroke-linejoin:miter">
<!ENTITY sto3 "fill:none;  fill-rule:nonzero; stroke:#BFBFBF; stroke-width:0.28; stroke-linecap:butt; stroke-linejoin:miter">
<!ENTITY stt0 "font-family:Helvetica; font-size:73.41; fill:#000000">
<!ENTITY stt1 "font-family:Helvetica; font-size:73.74; fill:#000000">
<!ENTITY stt2 "font-family:Helvetica; font-size:25.99; font-weight:bold; fill:#BF94CD">
]>
<svg  xml:space="preserve" width="165.80mm" height="221.43mm" viewBox="0 0 470.00 627.68">
<polyline style="&sto0;"
	points="11.62,7.76 394.66,7.76 "/>
<polyline style="&sto0;"
	points="11.62,627.68 396.64,627.68 "/>
<polygon style="&sto1;"
	points="13.78,452.72 98.74,527.78 132.76,527.78 132.76,182.72 
	42.76,97.76 13.78,97.76 13.78,452.72 13.78,452.72 "/>
<polygon style="&sto2;"
	points="13.78,452.72 42.76,452.72 42.76,97.76 13.78,97.76 
	13.78,452.72 "/>
<polygon style="&sto1;"
	points="42.76,302.78 42.76,372.62 370.72,372.62 370.72,302.78 
	42.76,302.78 42.76,302.78 "/>
<polygon style="&sto2;"
	points="42.76,302.78 42.76,274.70 370.72,274.70 370.72,302.78 
	42.76,302.78 42.76,302.78 "/>
<polygon style="&sto1;"
	points="273.70,452.72 358.66,527.78 392.68,527.78 392.68,182.72 
	302.68,97.76 273.70,97.76 273.70,452.72 273.70,452.72 "/>
<polygon style="&sto2;"
	points="273.70,452.72 302.68,452.72 302.68,97.76 273.70,97.76 
	273.70,452.72 273.70,452.72 "/>
<text x="0.0" y="0.0" transform="matrix(0.917878 0.000000 -0.000000 1.089469 13.597001 77.600002)"
	style="&stt0;"
>R O B E R T
</text>
<text x="0.0" y="0.0" transform="matrix(0.921954 0.000000 -0.000000 1.084652 13.597001 607.700002)"
	style="&stt1;"
>H A R K E R
</text>
<path style="&sto3;"
d="M 0.00 627.68 L 0.00 0.00
M 40.51 627.68 L 40.51 0.00
M 81.01 627.68 L 81.01 0.00
M 121.52 627.68 L 121.52 0.00
M 162.03 627.68 L 162.03 0.00
M 202.54 627.68 L 202.54 0.00
M 243.04 627.68 L 243.04 0.00
M 283.55 627.68 L 283.55 0.00
M 324.06 627.68 L 324.06 0.00
M 364.56 627.68 L 364.56 0.00
M 405.07 627.68 L 405.07 0.00
M 405.07 0.00 L 0.00 0.00"/>
<polyline style="&sto3;"
	points="405.07,62.77 0.00,62.77 "/>
<polyline style="&sto3;"
	points="405.07,125.54 0.00,125.54 "/>
<polyline style="&sto3;"
	points="405.07,188.30 0.00,188.30 "/>
<polyline style="&sto3;"
	points="405.07,251.07 0.00,251.07 "/>
<polyline style="&sto3;"
	points="405.07,313.84 0.00,313.84 "/>
<polyline style="&sto3;"
	points="405.07,376.61 0.00,376.61 "/>
<polyline style="&sto3;"
	points="405.07,439.38 0.00,439.38 "/>
<polyline style="&sto3;"
	points="405.07,502.14 0.00,502.14 "/>
<polyline style="&sto3;"
	points="405.07,564.91 0.00,564.91 "/>
<polyline style="&sto3;"
	points="405.07,627.68 0.00,627.68 "/>
</svg>
